<svg width="1600" height="1000" viewBox="0 0 1600 1000" fill="none" xmlns="http://www.w3.org/2000/svg">
  <defs>
    <linearGradient id="bg" x1="0" y1="0" x2="1600" y2="1000" gradientUnits="userSpaceOnUse">
      <stop stop-color="#071120"/>
      <stop offset="0.55" stop-color="#0B1731"/>
      <stop offset="1" stop-color="#050814"/>
    </linearGradient>
    <linearGradient id="accent" x1="0" y1="0" x2="1" y2="1">
      <stop stop-color="#66F4FF"/>
      <stop offset="1" stop-color="#9B5CFF"/>
    </linearGradient>
    <filter id="glow" x="-30%" y="-30%" width="160%" height="160%">
      <feGaussianBlur stdDeviation="60"/>
    </filter>
  </defs>

  <rect width="1600" height="1000" rx="36" fill="url(#bg)"/>
  <circle cx="220" cy="160" r="150" fill="#00DFFF" fill-opacity="0.12" filter="url(#glow)"/>
  <circle cx="1350" cy="120" r="170" fill="#A45BFF" fill-opacity="0.14" filter="url(#glow)"/>
  <circle cx="1180" cy="860" r="220" fill="#5476FF" fill-opacity="0.12" filter="url(#glow)"/>

  <rect x="24" y="24" width="1552" height="952" rx="34" fill="#0A1226" stroke="rgba(255,255,255,0.08)"/>

  <rect x="24" y="24" width="1552" height="74" rx="34" fill="#0D162B"/>
  <circle cx="62" cy="61" r="6" fill="#FF5F57"/>
  <circle cx="84" cy="61" r="6" fill="#FEBC2E"/>
  <circle cx="106" cy="61" r="6" fill="#28C840"/>
  <rect x="140" y="44" width="38" height="38" rx="12" fill="url(#accent)"/>
  <text x="154" y="68" fill="#071120" font-family="Inter, Arial, sans-serif" font-size="22" font-weight="900">A</text>
  <text x="194" y="60" fill="#7CF0FF" font-family="Inter, Arial, sans-serif" font-size="14" letter-spacing="2">AVBYTES WORKBENCH</text>
  <text x="194" y="80" fill="#EFF5FF" font-family="Inter, Arial, sans-serif" font-size="24" font-weight="800">AI app operating system</text>

  <rect x="650" y="40" width="420" height="42" rx="21" fill="#111A34" stroke="rgba(255,255,255,0.06)"/>
  <circle cx="680" cy="61" r="7" fill="#6B7898"/>
  <text x="700" y="67" fill="#9FB0D6" font-family="Inter, Arial, sans-serif" font-size="15">Search apps, agents, tenants, workflows...</text>

  <rect x="1292" y="42" width="92" height="38" rx="19" fill="#111A34" stroke="rgba(255,255,255,0.06)"/>
  <text x="1318" y="66" fill="#EAF2FF" font-family="Inter, Arial, sans-serif" font-size="14">Upgrade</text>
  <rect x="1400" y="42" width="148" height="38" rx="19" fill="#111A34" stroke="rgba(255,255,255,0.06)"/>
  <circle cx="1430" cy="61" r="13" fill="url(#accent)"/>
  <text x="1454" y="66" fill="#EAF2FF" font-family="Inter, Arial, sans-serif" font-size="14">Tony • Pro</text>

  <rect x="48" y="118" width="250" height="822" rx="28" fill="#0D162B" stroke="rgba(255,255,255,0.07)"/>
  <text x="76" y="164" fill="#7CF0FF" font-family="Inter, Arial, sans-serif" font-size="13" letter-spacing="2">WORKSPACES</text>
  <rect x="68" y="186" width="210" height="58" rx="18" fill="url(#accent)"/>
  <text x="92" y="214" fill="#071120" font-family="Inter, Arial, sans-serif" font-size="14" letter-spacing="1.5">ACTIVE WORKSPACE</text>
  <text x="92" y="234" fill="#071120" font-family="Inter, Arial, sans-serif" font-size="20" font-weight="800">Avbytes Core</text>

  <text x="76" y="286" fill="#7CF0FF" font-family="Inter, Arial, sans-serif" font-size="13" letter-spacing="2">APP SUITE</text>
  <rect x="68" y="304" width="210" height="56" rx="18" fill="#121E3B" stroke="#5DEBFF" stroke-opacity="0.45"/>
  <text x="92" y="337" fill="#F4F8FF" font-family="Inter, Arial, sans-serif" font-size="18" font-weight="700">Workbench Home</text>
  <rect x="68" y="374" width="210" height="52" rx="18" fill="#121B34" stroke="rgba(255,255,255,0.05)"/>
  <text x="92" y="406" fill="#DCE5FB" font-family="Inter, Arial, sans-serif" font-size="17">Research Agent</text>
  <rect x="68" y="438" width="210" height="52" rx="18" fill="#121B34" stroke="rgba(255,255,255,0.05)"/>
  <text x="92" y="470" fill="#DCE5FB" font-family="Inter, Arial, sans-serif" font-size="17">Sales Copilot</text>
  <rect x="68" y="502" width="210" height="52" rx="18" fill="#121B34" stroke="rgba(255,255,255,0.05)"/>
  <text x="92" y="534" fill="#DCE5FB" font-family="Inter, Arial, sans-serif" font-size="17">Support Ops</text>
  <rect x="68" y="566" width="210" height="52" rx="18" fill="#121B34" stroke="rgba(255,255,255,0.05)"/>
  <text x="92" y="598" fill="#DCE5FB" font-family="Inter, Arial, sans-serif" font-size="17">Docs Studio</text>

  <rect x="68" y="662" width="210" height="236" rx="22" fill="#101933" stroke="rgba(255,255,255,0.05)"/>
  <text x="88" y="696" fill="#7CF0FF" font-family="Inter, Arial, sans-serif" font-size="13" letter-spacing="2">POLICY SNAPSHOT</text>
  <text x="88" y="734" fill="#F3F8FF" font-family="Inter, Arial, sans-serif" font-size="18" font-weight="700">Scoped tools</text>
  <text x="88" y="768" fill="#B5C5E8" font-family="Inter, Arial, sans-serif" font-size="15">• Browser automation</text>
  <text x="88" y="794" fill="#B5C5E8" font-family="Inter, Arial, sans-serif" font-size="15">• Web search</text>
  <text x="88" y="820" fill="#B5C5E8" font-family="Inter, Arial, sans-serif" font-size="15">• CRM + Email</text>
  <text x="88" y="846" fill="#B5C5E8" font-family="Inter, Arial, sans-serif" font-size="15">• Approval gates</text>

  <rect x="322" y="118" width="1230" height="170" rx="28" fill="#0D162B" stroke="rgba(255,255,255,0.07)"/>
  <text x="356" y="160" fill="#7CF0FF" font-family="Inter, Arial, sans-serif" font-size="13" letter-spacing="2">DASHBOARD</text>
  <text x="356" y="212" fill="#F4F8FF" font-family="Inter, Arial, sans-serif" font-size="48" font-weight="800">Build browser-native AI apps on a governed SaaS workbench</text>
  <text x="356" y="254" fill="#C8D5F1" font-family="Inter, Arial, sans-serif" font-size="20">One secure shell gives users a clean app launcher, role-aware access, app-specific agents, and capability-scoped tools.</text>

  <rect x="322" y="308" width="270" height="124" rx="24" fill="#0F1933" stroke="rgba(255,255,255,0.07)"/>
  <text x="350" y="346" fill="#7CF0FF" font-family="Inter, Arial, sans-serif" font-size="12" letter-spacing="2">TENANTS</text>
  <text x="350" y="388" fill="#F4F8FF" font-family="Inter, Arial, sans-serif" font-size="34" font-weight="800">24</text>
  <text x="350" y="414" fill="#B8C7E9" font-family="Inter, Arial, sans-serif" font-size="16">Active workspaces with custom app catalogs</text>

  <rect x="610" y="308" width="270" height="124" rx="24" fill="#0F1933" stroke="rgba(255,255,255,0.07)"/>
  <text x="638" y="346" fill="#7CF0FF" font-family="Inter, Arial, sans-serif" font-size="12" letter-spacing="2">APP MODULES</text>
  <text x="638" y="388" fill="#F4F8FF" font-family="Inter, Arial, sans-serif" font-size="34" font-weight="800">11</text>
  <text x="638" y="414" fill="#B8C7E9" font-family="Inter, Arial, sans-serif" font-size="16">Versioned apps loaded through a registry</text>

  <rect x="898" y="308" width="270" height="124" rx="24" fill="#0F1933" stroke="rgba(255,255,255,0.07)"/>
  <text x="926" y="346" fill="#7CF0FF" font-family="Inter, Arial, sans-serif" font-size="12" letter-spacing="2">AGENT RUNS</text>
  <text x="926" y="388" fill="#F4F8FF" font-family="Inter, Arial, sans-serif" font-size="34" font-weight="800">3.2k</text>
  <text x="926" y="414" fill="#B8C7E9" font-family="Inter, Arial, sans-serif" font-size="16">Scoped sessions with approvals and audit logs</text>

  <rect x="1186" y="308" width="366" height="124" rx="24" fill="#0F1933" stroke="rgba(255,255,255,0.07)"/>
  <text x="1214" y="346" fill="#7CF0FF" font-family="Inter, Arial, sans-serif" font-size="12" letter-spacing="2">TOOL GOVERNANCE</text>
  <rect x="1214" y="372" width="270" height="20" rx="10" fill="#182545"/>
  <rect x="1214" y="372" width="218" height="20" rx="10" fill="url(#accent)"/>
  <text x="1214" y="416" fill="#B8C7E9" font-family="Inter, Arial, sans-serif" font-size="16">81% of actions covered by scoped policy templates</text>

  <rect x="322" y="454" width="560" height="486" rx="28" fill="#0D162B" stroke="rgba(255,255,255,0.07)"/>
  <text x="356" y="498" fill="#7CF0FF" font-family="Inter, Arial, sans-serif" font-size="13" letter-spacing="2">APP MARKETPLACE</text>
  <text x="356" y="536" fill="#F4F8FF" font-family="Inter, Arial, sans-serif" font-size="28" font-weight="800">Choose the right AI app for the job</text>

  <rect x="356" y="564" width="230" height="152" rx="22" fill="#121D39" stroke="rgba(255,255,255,0.06)"/>
  <text x="380" y="600" fill="#7CF0FF" font-family="Inter, Arial, sans-serif" font-size="12" letter-spacing="2">RESEARCH</text>
  <text x="380" y="636" fill="#F4F8FF" font-family="Inter, Arial, sans-serif" font-size="22" font-weight="700">Research Agent</text>
  <text x="380" y="666" fill="#C7D4F0" font-family="Inter, Arial, sans-serif" font-size="15">Web, browser, notes, synthesis</text>
  <rect x="380" y="688" width="126" height="30" rx="15" fill="#0E1730" stroke="rgba(255,255,255,0.05)"/>
  <text x="410" y="708" fill="#EAF2FF" font-family="Inter, Arial, sans-serif" font-size="13">Launch app</text>

  <rect x="612" y="564" width="230" height="152" rx="22" fill="#121D39" stroke="rgba(255,255,255,0.06)"/>
  <text x="636" y="600" fill="#7CF0FF" font-family="Inter, Arial, sans-serif" font-size="12" letter-spacing="2">SALES</text>
  <text x="636" y="636" fill="#F4F8FF" font-family="Inter, Arial, sans-serif" font-size="22" font-weight="700">Sales Copilot</text>
  <text x="636" y="666" fill="#C7D4F0" font-family="Inter, Arial, sans-serif" font-size="15">CRM, outreach, negotiation support</text>
  <rect x="636" y="688" width="126" height="30" rx="15" fill="#0E1730" stroke="rgba(255,255,255,0.05)"/>
  <text x="666" y="708" fill="#EAF2FF" font-family="Inter, Arial, sans-serif" font-size="13">Launch app</text>

  <rect x="356" y="738" width="230" height="152" rx="22" fill="#121D39" stroke="rgba(255,255,255,0.06)"/>
  <text x="380" y="774" fill="#7CF0FF" font-family="Inter, Arial, sans-serif" font-size="12" letter-spacing="2">DOCS</text>
  <text x="380" y="810" fill="#F4F8FF" font-family="Inter, Arial, sans-serif" font-size="22" font-weight="700">Docs Studio</text>
  <text x="380" y="840" fill="#C7D4F0" font-family="Inter, Arial, sans-serif" font-size="15">Analysis, drafting, review workflows</text>
  <rect x="380" y="862" width="126" height="30" rx="15" fill="#0E1730" stroke="rgba(255,255,255,0.05)"/>
  <text x="410" y="882" fill="#EAF2FF" font-family="Inter, Arial, sans-serif" font-size="13">Launch app</text>

  <rect x="612" y="738" width="230" height="152" rx="22" fill="#121D39" stroke="rgba(255,255,255,0.06)"/>
  <text x="636" y="774" fill="#7CF0FF" font-family="Inter, Arial, sans-serif" font-size="12" letter-spacing="2">SUPPORT</text>
  <text x="636" y="810" fill="#F4F8FF" font-family="Inter, Arial, sans-serif" font-size="22" font-weight="700">Support Ops</text>
  <text x="636" y="840" fill="#C7D4F0" font-family="Inter, Arial, sans-serif" font-size="15">Queues, tickets, triage, follow-up</text>
  <rect x="636" y="862" width="126" height="30" rx="15" fill="#0E1730" stroke="rgba(255,255,255,0.05)"/>
  <text x="666" y="882" fill="#EAF2FF" font-family="Inter, Arial, sans-serif" font-size="13">Launch app</text>

  <rect x="902" y="454" width="650" height="312" rx="28" fill="#0D162B" stroke="rgba(255,255,255,0.07)"/>
  <text x="936" y="498" fill="#7CF0FF" font-family="Inter, Arial, sans-serif" font-size="13" letter-spacing="2">ACTIVE APP SESSION</text>
  <text x="936" y="536" fill="#F4F8FF" font-family="Inter, Arial, sans-serif" font-size="28" font-weight="800">Research Agent · Workbench strategy</text>
  <rect x="936" y="556" width="150" height="30" rx="15" fill="#121D39" stroke="rgba(255,255,255,0.05)"/>
  <text x="970" y="576" fill="#EAF2FF" font-family="Inter, Arial, sans-serif" font-size="13">Model · GPT-5.4</text>
  <rect x="1098" y="556" width="180" height="30" rx="15" fill="#121D39" stroke="rgba(255,255,255,0.05)"/>
  <text x="1130" y="576" fill="#EAF2FF" font-family="Inter, Arial, sans-serif" font-size="13">Tools · browser + search</text>

  <rect x="936" y="606" width="430" height="122" rx="22" fill="#121D39" stroke="rgba(255,255,255,0.06)"/>
  <text x="962" y="640" fill="#7CF0FF" font-family="Inter, Arial, sans-serif" font-size="12" letter-spacing="2">TASK</text>
  <text x="962" y="674" fill="#F4F8FF" font-family="Inter, Arial, sans-serif" font-size="18" font-weight="700">Design a modular AI workbench</text>
  <text x="962" y="704" fill="#C7D4F0" font-family="Inter, Arial, sans-serif" font-size="15">Plan the shell, registry, per-app agents, tool gateway, and tenant permissions.</text>

  <rect x="1388" y="606" width="130" height="122" rx="22" fill="#121D39" stroke="rgba(255,255,255,0.06)"/>
  <text x="1414" y="640" fill="#7CF0FF" font-family="Inter, Arial, sans-serif" font-size="12" letter-spacing="2">STATUS</text>
  <text x="1414" y="682" fill="#F4F8FF" font-family="Inter, Arial, sans-serif" font-size="18" font-weight="700">In review</text>
  <text x="1414" y="710" fill="#C7D4F0" font-family="Inter, Arial, sans-serif" font-size="14">2 approvals</text>

  <rect x="902" y="788" width="650" height="152" rx="28" fill="#0D162B" stroke="rgba(255,255,255,0.07)"/>
  <text x="936" y="830" fill="#7CF0FF" font-family="Inter, Arial, sans-serif" font-size="13" letter-spacing="2">ROLL OUT PATH</text>
  <text x="936" y="868" fill="#F4F8FF" font-family="Inter, Arial, sans-serif" font-size="24" font-weight="800">Modular monolith first. Ecosystem later.</text>
  <text x="936" y="904" fill="#C7D4F0" font-family="Inter, Arial, sans-serif" font-size="16">Ship the shell, app registry, per-app agents, and scoped tools first. Add remote modules and plugin packaging only after the core platform is stable.</text>
</svg>
